<?xml version="1.0" encoding="utf-8"?>
<!-- Generator: Adobe Illustrator 16.0.0, SVG Export Plug-In . SVG Version: 6.00 Build 0)  -->
<!DOCTYPE svg PUBLIC "-//W3C//DTD SVG 1.1//EN" "http://www.w3.org/Graphics/SVG/1.1/DTD/svg11.dtd">
<svg version="1.1" xmlns="http://www.w3.org/2000/svg" xmlns:xlink="http://www.w3.org/1999/xlink" x="0px" y="0px" width="200px"
	 height="200px" viewBox="0 0 200 200" enable-background="new 0 0 200 200" xml:space="preserve">
<g id="图层_2_1_">
	<path fill="#0077D9" d="M183.332,182.774c-5.797,5.433-16.792,5-16.792,5H28.995c0,0-9.414-0.617-15.792-5
		c-5-3.436-5-17.243-5-17.243L7.939,29.277c0,0-1.917-7.994,6.264-15.631c6.104-5.699,14.792-5,14.792-5H166.54
		c0,0,10.255,0,14.885,5.191c6.165,6.913,5.968,13.624,5.968,13.624l-0.027,140.252C187.365,167.712,188.16,178.249,183.332,182.774
		z"/>
</g>
<g id="图层_1">
	<g id="图层_1_1_">
		<g>
			<g>
				<g>
					<path fill="#FFFFFF" d="M162.49,161.883H94.993c-18.899,0-33.148-6.75-38.849-17.25c-4.35,4.051-11.399,10.65-20.249,16.949
						c-0.9,0.602-1.8,0.9-2.55,0.9c-2.4,0-4.35-2.25-4.35-4.5c0-1.199,0.6-2.551,1.95-3.449c11.549-8.1,20.099-16.65,22.349-19.199
						V93.485H33.495c-2.85,0-4.2-2.1-4.2-4.2c0-2.1,1.35-4.35,4.2-4.35h23.999c2.85,0,4.35,1.5,4.35,4.35v44.248
						c0,13.05,14.249,19.8,33.148,19.8h67.197c2.851,0,4.351,2.25,4.351,4.499C166.54,159.934,165.189,161.883,162.49,161.883z
						 M59.894,59.437c-1.05,0-2.1-0.45-3-1.35c-8.399-9-19.649-16.35-19.649-16.35c-1.35-0.9-1.95-2.1-1.95-3.3
						c0-2.25,1.8-4.5,4.2-4.5c0.75,0,1.65,0.3,2.4,0.75c0,0,12.149,7.95,21.149,17.549c0.75,0.9,1.2,1.95,1.2,2.85
						C64.244,57.337,62.144,59.437,59.894,59.437z M157.689,46.837H76.843c-2.85,0-4.2-2.1-4.2-4.2c0-2.1,1.35-4.2,4.2-4.2h80.847
						c2.851,0,4.351,2.1,4.351,4.2C162.04,44.737,160.54,46.837,157.689,46.837z M155.74,143.434H79.843c-2.85,0-4.2-1.5-4.2-4.199
						v-42c0-2.7,1.35-4.2,4.2-4.2h75.897c2.699,0,4.199,1.5,4.199,4.2v41.998C159.939,141.934,158.439,143.434,155.74,143.434z
						 M149.439,84.336H85.393c-2.85,0-4.2-1.35-4.2-4.2V59.587c0-2.7,1.35-4.2,4.2-4.2h64.046c2.701,0,4.201,1.5,4.201,4.2v20.549
						C153.641,82.986,152.141,84.336,149.439,84.336z M113.292,101.585H84.043v11.55h29.249V101.585z M113.292,121.534H84.043v13.35
						h29.249V121.534z M98.505,80.929l6.228-4.993h40.357v-12H89.593v12L94.002,76L98.505,80.929 M151.391,101.585h-29.699v11.55
						h29.699V101.585z M151.391,121.534h-29.699v13.35h29.699V121.534z M96.742,92.464c-0.303,0-0.609-0.035-0.912-0.105
						c-1.364-0.319-2.462-1.329-2.894-2.662l-2.742-8.464c-0.681-2.102,0.471-4.357,2.572-5.038c2.103-0.68,4.358,0.471,5.038,2.572
						l0.7,2.162l3.631-3.722c1.542-1.583,4.076-1.612,5.656-0.07c1.582,1.543,1.613,4.075,0.07,5.657l-8.258,8.464
						C98.844,92.038,97.807,92.464,96.742,92.464z"/>
				</g>
			</g>
		</g>
	</g>
	<g id="图层_2">
	</g>
</g>
</svg>
